<svg width="27" height="27" viewBox="0 0 27 27" fill="none" xmlns="http://www.w3.org/2000/svg">
<path d="M23.0955 14.391H12.8955V4.19098C12.8959 4.09343 12.877 3.99676 12.8398 3.90656C12.8027 3.81636 12.7481 3.7344 12.6791 3.66542C12.6101 3.59644 12.5281 3.5418 12.4379 3.50465C12.3477 3.4675 12.2511 3.44858 12.1535 3.44898C9.84397 3.44977 7.58651 4.1353 5.66652 5.41891C3.74653 6.70252 2.25023 8.52657 1.36677 10.6605C0.483306 12.7944 0.25236 15.1423 0.703125 17.4074C1.15389 19.6726 2.26612 21.7532 3.89922 23.3863C5.53232 25.0194 7.61295 26.1316 9.87808 26.5824C12.1432 27.0331 14.4911 26.8022 16.625 25.9187C18.7589 25.0353 20.583 23.539 21.8666 21.619C23.1502 19.699 23.8357 17.4415 23.8365 15.132C23.8352 14.9359 23.7567 14.7481 23.618 14.6095C23.4794 14.4708 23.2916 14.3923 23.0955 14.391ZM12.1575 25.328C9.53535 25.3004 7.02455 24.2639 5.14645 22.4338C3.26834 20.6037 2.16724 18.1205 2.07175 15.5C1.97627 12.8794 2.89374 10.3227 4.63367 8.36075C6.3736 6.39882 8.80231 5.18237 11.4155 4.96398V15.132C11.4151 15.2295 11.434 15.3262 11.4712 15.4164C11.5083 15.5066 11.563 15.5886 11.632 15.6575C11.7009 15.7265 11.7829 15.7812 11.8731 15.8183C11.9633 15.8555 12.06 15.8744 12.1575 15.874H22.3285C22.1388 18.4424 20.985 20.844 19.0987 22.5974C17.2124 24.3507 14.7329 25.3261 12.1575 25.328Z" fill="#A7A7A7"/>
<path d="M26.6388 12.287C26.6293 9.19596 25.3945 6.23481 23.2053 4.05267C21.016 1.87053 18.0508 0.645458 14.9598 0.646002C14.8622 0.645605 14.7656 0.664527 14.6754 0.701675C14.5852 0.738824 14.5032 0.793464 14.4342 0.862444C14.3652 0.931424 14.3106 1.01338 14.2735 1.10358C14.2363 1.19379 14.2174 1.29045 14.2178 1.388V12.325C14.2174 12.4226 14.2363 12.5192 14.2735 12.6094C14.3106 12.6996 14.3652 12.7816 14.4342 12.8506C14.5032 12.9195 14.5852 12.9742 14.6754 13.0113C14.7656 13.0485 14.8622 13.0674 14.9598 13.067H25.8978C25.9953 13.0674 26.092 13.0485 26.1822 13.0113C26.2724 12.9742 26.3544 12.9195 26.4233 12.8506C26.4923 12.7816 26.547 12.6996 26.5841 12.6094C26.6213 12.5192 26.6402 12.4226 26.6398 12.325L26.6388 12.287ZM15.7008 11.587V2.162C18.1417 2.34093 20.4369 3.39159 22.1676 5.12222C23.8982 6.85285 24.9489 9.14807 25.1278 11.589H15.7008V11.587Z" fill="#A7A7A7"/>
</svg>
