<svg width="22" height="22" viewBox="0 0 22 22" fill="none" xmlns="http://www.w3.org/2000/svg">
<path d="M16.4169 7.62486L15.5039 6.68586C15.4852 6.66623 15.4627 6.65062 15.4378 6.63996C15.4129 6.6293 15.386 6.62382 15.3589 6.62386C15.3317 6.62307 15.3046 6.62821 15.2796 6.63892C15.2546 6.64962 15.2322 6.66564 15.2139 6.68586L8.88692 13.0589L6.58692 10.7589C6.56824 10.7392 6.54575 10.7235 6.52082 10.7128C6.49589 10.7021 6.46905 10.6966 6.44192 10.6966C6.41479 10.6966 6.38795 10.7021 6.36302 10.7128C6.33809 10.7235 6.3156 10.7392 6.29692 10.7589L5.37392 11.6819C5.35359 11.7012 5.3374 11.7245 5.32634 11.7502C5.31527 11.776 5.30957 11.8038 5.30957 11.8319C5.30957 11.8599 5.31527 11.8877 5.32634 11.9135C5.3374 11.9393 5.35359 11.9625 5.37392 11.9819L8.27392 14.8819C8.43064 15.0555 8.64775 15.1629 8.88092 15.1819C9.10842 15.1611 9.3211 15.0601 9.48092 14.8969H9.48592L16.4199 7.92686C16.4576 7.88542 16.4782 7.83128 16.4777 7.77527C16.4771 7.71926 16.4554 7.66553 16.4169 7.62486Z" fill="#00B90D"/>
<path d="M10.8886 1.56284C13.0472 1.56376 15.1387 2.31306 16.8068 3.68308C18.4749 5.05311 19.6165 6.95911 20.0369 9.07637C20.4574 11.1936 20.1307 13.3912 19.1127 15.2946C18.0946 17.1981 16.4481 18.6897 14.4536 19.5153C12.4591 20.341 10.2401 20.4496 8.17456 19.8226C6.109 19.1957 4.3247 17.872 3.12563 16.0771C1.92656 14.2821 1.38691 12.127 1.5986 9.97876C1.81029 7.83056 2.76023 5.82221 4.28659 4.29584C5.15137 3.42656 6.17997 2.73742 7.31286 2.2683C8.44575 1.79918 9.66042 1.5594 10.8866 1.56284M10.8866 0.11084C8.75317 0.111038 6.66771 0.743852 4.89393 1.92926C3.12015 3.11467 1.7377 4.79944 0.921415 6.77053C0.105126 8.74161 -0.10835 10.9105 0.307982 13.0029C0.724314 15.0953 1.75175 17.0173 3.26038 18.5258C4.76901 20.0342 6.69107 21.0615 8.78352 21.4776C10.876 21.8938 13.0448 21.6801 15.0158 20.8636C16.9868 20.0472 18.6715 18.6646 19.8567 16.8907C21.042 15.1168 21.6746 13.0313 21.6746 10.8978C21.6749 9.48128 21.3961 8.07855 20.8541 6.76975C20.3122 5.46096 19.5177 4.27175 18.5161 3.27005C17.5145 2.26834 16.3253 1.47377 15.0166 0.931703C13.7079 0.38964 12.3052 0.110709 10.8886 0.11084H10.8866Z" fill="#00B90D"/>
</svg>
