<svg width="19" height="19" viewBox="0 0 19 19" fill="none" xmlns="http://www.w3.org/2000/svg">
<path d="M9.50011 0.646C7.78542 0.646073 6.10764 1.14404 4.67055 2.07942C3.23346 3.0148 2.0989 4.34734 1.40465 5.9152C0.710413 7.48306 0.486368 9.21878 0.759731 10.9115C1.03309 12.6043 1.7921 14.1813 2.94457 15.4509C4.09704 16.7205 5.59338 17.6282 7.25185 18.0637C8.91032 18.4992 10.6596 18.4437 12.2871 17.9041C13.9147 17.3644 15.3505 16.3637 16.4202 15.0236C17.4899 13.6836 18.1475 12.0617 18.3131 10.355C18.3229 10.2528 18.3022 10.15 18.2537 10.0595C18.2052 9.96897 18.1311 9.89481 18.0406 9.84631C17.9501 9.7978 17.8473 9.77712 17.7451 9.78685C17.6429 9.79658 17.5458 9.83629 17.4661 9.901C16.9282 10.3405 16.3078 10.6679 15.6414 10.864C14.9751 11.0602 14.2762 11.1211 13.586 11.0431C12.8958 10.9652 12.2281 10.75 11.6223 10.4102C11.0165 10.0704 10.4847 9.61282 10.0584 9.06446C9.63198 8.5161 9.31958 7.888 9.13955 7.21712C8.95951 6.54624 8.91548 5.84613 9.01003 5.15798C9.10458 4.46982 9.33581 3.80753 9.69011 3.21007C10.0444 2.61261 10.5146 2.09204 11.0731 1.679C11.1556 1.6176 11.218 1.53317 11.2526 1.43634C11.2872 1.33952 11.2924 1.23463 11.2674 1.13487C11.2425 1.03512 11.1887 0.94497 11.1126 0.875771C11.0366 0.806572 10.9418 0.76142 10.8401 0.746C10.3966 0.679023 9.94866 0.645594 9.50011 0.646Z" fill="#CFD9E6"/>
</svg>
