<svg width="29" height="23" viewBox="0 0 29 23" fill="none" xmlns="http://www.w3.org/2000/svg">
<path opacity="0.8" d="M28.7402 9.66093L18.0869 0.172049C18.0339 0.115817 17.9686 0.0713057 17.8955 0.0416326C17.8225 0.0119595 17.7436 -0.00215865 17.6642 0.000267159C17.3326 0.0149913 16.9099 0.23749 16.9099 0.576144V5.33204C16.9077 5.40352 16.8793 5.47202 16.8298 5.52577C16.7803 5.57951 16.7126 5.61514 16.6384 5.62652C6.04532 7.17255 1.58298 14.7211 0.00561669 22.556C-0.0545226 22.8652 0.383635 23.1531 0.58639 22.9077C2.39581 20.4802 4.79883 18.5087 7.58779 17.1636C10.3768 15.8185 13.4678 15.1402 16.5938 15.1874C16.6811 15.1998 16.761 15.2413 16.8192 15.3045C16.8774 15.3677 16.9102 15.4485 16.9116 15.5326V20.2034C16.9239 20.3186 16.97 20.4281 17.0446 20.5195C17.1193 20.6109 17.2194 20.6805 17.3336 20.7202C17.4478 20.76 17.5714 20.7684 17.6903 20.7444C17.8093 20.7204 17.9187 20.665 18.0062 20.5846L28.735 10.9321C28.8217 10.8552 28.8901 10.7615 28.9357 10.6574C28.9813 10.5533 29.0031 10.4412 28.9996 10.3284C29.0058 10.0826 28.913 9.84375 28.7402 9.66093Z" fill="#4F0A83"/>
</svg>
