<svg width="45" height="27" viewBox="0 0 45 27" fill="none" xmlns="http://www.w3.org/2000/svg">
<path d="M30.5646 1.62873e-06H24.5252C23.9631 0.000142134 23.4214 0.210718 23.0069 0.590241L16.0937 6.91423C16.0937 6.91423 16.0802 6.93615 16.0718 6.9429C15.5326 7.44667 15.2144 8.14308 15.1866 8.88036C15.1588 9.61764 15.4236 10.336 15.9233 10.879C16.4389 11.3961 17.129 11.7023 17.8585 11.7375C18.588 11.7727 19.3044 11.5345 19.8675 11.0695C19.8675 11.0695 19.8894 11.0695 19.8962 11.056L25.5138 5.91083C25.7354 5.71895 26.0231 5.62111 26.3158 5.63812C26.6084 5.65513 26.8829 5.78565 27.0808 6.0019C27.2786 6.21814 27.3842 6.50304 27.3751 6.79596C27.366 7.08888 27.2429 7.36668 27.0321 7.57024L25.1966 9.25664L35.4349 17.5655C35.6334 17.7315 35.819 17.9125 35.9899 18.1069V4.49762L32.1537 0.66107C31.9457 0.451288 31.6982 0.284839 31.4254 0.171365C31.1526 0.0578904 30.86 -0.0003551 30.5646 1.62873e-06ZM38.2504 4.5128V20.2503C38.25 20.5458 38.3079 20.8386 38.4208 21.1117C38.5338 21.3848 38.6995 21.633 38.9086 21.842C39.1176 22.051 39.3659 22.2167 39.6391 22.3296C39.9124 22.4425 40.2052 22.5004 40.5008 22.4999H45V4.5128H38.2504ZM41.6244 20.2503C41.4018 20.2503 41.1843 20.1843 40.9992 20.0607C40.8142 19.9371 40.67 19.7614 40.5848 19.5559C40.4996 19.3504 40.4774 19.1242 40.5208 18.906C40.5642 18.6878 40.6714 18.4874 40.8287 18.3301C40.9861 18.1728 41.1866 18.0656 41.4049 18.0222C41.6231 17.9788 41.8494 18.0011 42.055 18.0862C42.2606 18.1714 42.4363 18.3155 42.5599 18.5005C42.6836 18.6855 42.7496 18.903 42.7496 19.1254C42.7487 19.4235 42.6299 19.7091 42.419 19.9198C42.2082 20.1306 41.9225 20.2494 41.6244 20.2503ZM0 22.4915H4.49916C4.7951 22.4917 5.08817 22.4335 5.36154 22.3202C5.63491 22.2069 5.88319 22.0407 6.09214 21.8312C6.30109 21.6217 6.46658 21.373 6.57911 21.0994C6.69164 20.8258 6.749 20.5326 6.74789 20.2368V4.5128H0V22.4915ZM3.37395 18.0006C3.59649 18.0006 3.81404 18.0666 3.99908 18.1902C4.18412 18.3138 4.32834 18.4894 4.41351 18.695C4.49867 18.9005 4.52095 19.1267 4.47754 19.3449C4.43412 19.5631 4.32695 19.7635 4.16959 19.9208C4.01223 20.0781 3.81173 20.1852 3.59346 20.2287C3.37519 20.2721 3.14895 20.2498 2.94335 20.1646C2.73774 20.0795 2.56201 19.9353 2.43837 19.7504C2.31473 19.5654 2.24873 19.3479 2.24873 19.1254C2.24962 18.8274 2.36846 18.5418 2.57928 18.331C2.79011 18.1203 3.07579 18.0015 3.37395 18.0006ZM34.0229 19.3076L23.5265 10.7929L21.4246 12.7222C20.9347 13.1718 20.3611 13.5205 19.7365 13.7484C19.1119 13.9764 18.4484 14.0791 17.7841 14.0508C16.4424 13.9936 15.1784 13.4058 14.2701 12.4169C13.3619 11.4281 12.8838 10.119 12.941 8.77772C12.9983 7.43646 13.5862 6.17287 14.5754 5.26494L20.328 1.62873e-06H14.4354C14.1401 0.000293105 13.8477 0.0588339 13.575 0.172271C13.3023 0.285708 13.0547 0.451813 12.8463 0.66107L9 4.49762V20.2368H10.2905L16.6504 25.9924C17.5764 26.7443 18.7632 27.0977 19.9499 26.975C21.1365 26.8523 22.2258 26.2635 22.9783 25.3381L22.9918 25.3246L24.2502 26.414C24.5166 26.6307 24.823 26.7927 25.152 26.8909C25.481 26.989 25.8262 27.0214 26.1677 26.9862C26.5092 26.951 26.8405 26.8488 27.1425 26.6855C27.4445 26.5222 27.7114 26.301 27.9278 26.0346L30.1361 23.3212L30.5157 23.6298C30.7454 23.8158 31.0097 23.9547 31.2932 24.0384C31.5768 24.1222 31.8741 24.1491 32.1681 24.1178C32.4621 24.0865 32.747 23.9975 33.0065 23.8558C33.266 23.7142 33.495 23.5228 33.6804 23.2925L34.3552 22.4696C34.5422 22.2402 34.6822 21.9762 34.7672 21.6927C34.8521 21.4091 34.8804 21.1117 34.8503 20.8173C34.8202 20.5229 34.7324 20.2372 34.5919 19.9768C34.4514 19.7163 34.2609 19.486 34.0313 19.2991L34.0229 19.3076Z" fill="#00B90D"/>
</svg>
