<svg width="22" height="22" viewBox="0 0 22 22" fill="none" xmlns="http://www.w3.org/2000/svg">
<path d="M11 0.25C11.1989 0.25 11.3897 0.329018 11.5303 0.46967C11.671 0.610322 11.75 0.801088 11.75 1V2C11.75 2.19891 11.671 2.38968 11.5303 2.53033C11.3897 2.67098 11.1989 2.75 11 2.75C10.8011 2.75 10.6103 2.67098 10.4697 2.53033C10.329 2.38968 10.25 2.19891 10.25 2V1C10.25 0.801088 10.329 0.610322 10.4697 0.46967C10.6103 0.329018 10.8011 0.25 11 0.25V0.25Z" fill="#CFD9E6"/>
<path d="M11 5.25C9.86276 5.25 8.75106 5.58723 7.80547 6.21905C6.85989 6.85087 6.1229 7.7489 5.6877 8.79957C5.25249 9.85025 5.13862 11.0064 5.36049 12.1218C5.58235 13.2372 6.12999 14.2617 6.93414 15.0659C7.73829 15.87 8.76284 16.4177 9.87823 16.6395C10.9936 16.8614 12.1498 16.7475 13.2004 16.3123C14.2511 15.8771 15.1491 15.1401 15.781 14.1945C16.4128 13.2489 16.75 12.1372 16.75 11C16.75 9.47501 16.1442 8.01247 15.0659 6.93414C13.9875 5.8558 12.525 5.25 11 5.25V5.25Z" fill="#CFD9E6"/>
<path d="M4.45886 3.39911C4.3902 3.32542 4.3074 3.26632 4.2154 3.22533C4.1234 3.18434 4.02409 3.16229 3.92339 3.16052C3.82268 3.15874 3.72266 3.17726 3.62927 3.21499C3.53588 3.25271 3.45104 3.30885 3.37983 3.38007C3.30861 3.45129 3.25246 3.53612 3.21474 3.62951C3.17702 3.7229 3.1585 3.82293 3.16027 3.92363C3.16205 4.02433 3.18409 4.12365 3.22508 4.21565C3.26608 4.30765 3.32518 4.39045 3.39886 4.45911L4.10586 5.16611C4.24804 5.29859 4.43609 5.37071 4.63039 5.36728C4.82469 5.36386 5.01007 5.28514 5.14749 5.14773C5.2849 5.01032 5.36361 4.82493 5.36704 4.63063C5.37047 4.43633 5.29834 4.24828 5.16586 4.10611L4.45886 3.39911Z" fill="#CFD9E6"/>
<path d="M21.75 11C21.75 11.1989 21.671 11.3897 21.5303 11.5303C21.3897 11.671 21.1989 11.75 21 11.75H20C19.8011 11.75 19.6103 11.671 19.4697 11.5303C19.329 11.3897 19.25 11.1989 19.25 11C19.25 10.8011 19.329 10.6103 19.4697 10.4697C19.6103 10.329 19.8011 10.25 20 10.25H21C21.1989 10.25 21.3897 10.329 21.5303 10.4697C21.671 10.6103 21.75 10.8011 21.75 11Z" fill="#CFD9E6"/>
<path d="M18.6011 4.45905C18.7336 4.31687 18.8057 4.12882 18.8023 3.93452C18.7989 3.74022 18.7201 3.55484 18.5827 3.41742C18.4453 3.28001 18.2599 3.2013 18.0656 3.19787C17.8713 3.19444 17.6833 3.26657 17.5411 3.39905L16.8341 4.10605C16.7016 4.24822 16.6295 4.43627 16.6329 4.63057C16.6364 4.82487 16.7151 5.01025 16.8525 5.14767C16.9899 5.28508 17.1753 5.36379 17.3696 5.36722C17.5639 5.37065 17.7519 5.29853 17.8941 5.16605L18.6011 4.45905Z" fill="#CFD9E6"/>
<path d="M11 19.25C11.1989 19.25 11.3897 19.329 11.5303 19.4697C11.671 19.6103 11.75 19.8011 11.75 20V21C11.75 21.1989 11.671 21.3897 11.5303 21.5303C11.3897 21.671 11.1989 21.75 11 21.75C10.8011 21.75 10.6103 21.671 10.4697 21.5303C10.329 21.3897 10.25 21.1989 10.25 21V20C10.25 19.8011 10.329 19.6103 10.4697 19.4697C10.6103 19.329 10.8011 19.25 11 19.25V19.25Z" fill="#CFD9E6"/>
<path d="M17.8941 16.8341C17.7519 16.7016 17.5639 16.6295 17.3696 16.6329C17.1753 16.6364 16.9899 16.7151 16.8525 16.8525C16.7151 16.9899 16.6364 17.1753 16.6329 17.3696C16.6295 17.5639 16.7016 17.7519 16.8341 17.8941L17.5411 18.6011C17.6833 18.7336 17.8713 18.8057 18.0656 18.8023C18.2599 18.7989 18.4453 18.7201 18.5827 18.5827C18.7201 18.4453 18.7989 18.2599 18.8023 18.0656C18.8057 17.8713 18.7336 17.6833 18.6011 17.5411L17.8941 16.8341Z" fill="#CFD9E6"/>
<path d="M2.75 11C2.75 11.1989 2.67098 11.3897 2.53033 11.5303C2.38968 11.671 2.19891 11.75 2 11.75H1C0.801088 11.75 0.610322 11.671 0.46967 11.5303C0.329018 11.3897 0.25 11.1989 0.25 11C0.25 10.8011 0.329018 10.6103 0.46967 10.4697C0.610322 10.329 0.801088 10.25 1 10.25H2C2.19891 10.25 2.38968 10.329 2.53033 10.4697C2.67098 10.6103 2.75 10.8011 2.75 11Z" fill="#CFD9E6"/>
<path d="M5.16556 17.8941C5.29804 17.7519 5.37016 17.5639 5.36673 17.3696C5.3633 17.1753 5.28459 16.9899 5.14718 16.8525C5.00977 16.7151 4.82438 16.6364 4.63008 16.6329C4.43578 16.6295 4.24773 16.7016 4.10556 16.8341L3.39856 17.5411C3.26608 17.6833 3.19395 17.8713 3.19738 18.0656C3.20081 18.2599 3.27952 18.4453 3.41694 18.5827C3.55435 18.7201 3.73973 18.7989 3.93403 18.8023C4.12834 18.8057 4.31638 18.7336 4.45856 18.6011L5.16556 17.8941Z" fill="#CFD9E6"/>
</svg>
