<svg width="31" height="35" viewBox="0 0 31 35" fill="none" xmlns="http://www.w3.org/2000/svg">
<path fill-rule="evenodd" clip-rule="evenodd" d="M13.0644 4.59391C10.6663 5.21333 8.54203 6.61207 7.0255 8.57028C5.50896 10.5285 4.68614 12.9351 4.68637 15.4119V22.8579C4.6861 23.1869 4.55544 23.5023 4.32301 23.7351C4.09058 23.9679 3.77534 24.0991 3.44637 24.0999C2.78797 24.0999 2.15653 24.3615 1.69098 24.827C1.22542 25.2926 0.963867 25.924 0.963867 26.5824C0.963867 27.2408 1.22542 27.8722 1.69098 28.3378C2.15653 28.8034 2.78797 29.0649 3.44637 29.0649H28.2644C28.9228 29.0649 29.5542 28.8034 30.0198 28.3378C30.4853 27.8722 30.7469 27.2408 30.7469 26.5824C30.7469 25.924 30.4853 25.2926 30.0198 24.827C29.5542 24.3615 28.9228 24.0999 28.2644 24.0999C28.1013 24.1002 27.9398 24.0682 27.7891 24.0059C27.6384 23.9435 27.5015 23.852 27.3863 23.7366C27.271 23.6212 27.1798 23.4842 27.1176 23.3334C27.0555 23.1826 27.0238 23.021 27.0244 22.8579V15.4119C27.0243 12.9352 26.2013 10.5287 24.6848 8.5706C23.1683 6.61247 21.0443 5.21364 18.6464 4.59391V3.31191C18.6534 2.94075 18.5864 2.57191 18.4492 2.22696C18.312 1.882 18.1074 1.56786 17.8474 1.30289C17.5874 1.03792 17.2772 0.827438 16.9349 0.683754C16.5926 0.54007 16.2251 0.466064 15.8539 0.466064C15.4826 0.466064 15.1151 0.54007 14.7728 0.683754C14.4305 0.827438 14.1203 1.03792 13.8603 1.30289C13.6003 1.56786 13.3957 1.882 13.2586 2.22696C13.1214 2.57191 13.0543 2.94075 13.0614 3.31191L13.0644 4.59391ZM11.5144 30.3059H20.2024C20.2024 31.458 19.7447 32.5629 18.93 33.3776C18.1154 34.1922 17.0105 34.6499 15.8584 34.6499C14.7063 34.6499 13.6014 34.1922 12.7867 33.3776C11.972 32.5629 11.5144 31.458 11.5144 30.3059Z" fill="#2D3F7B"/>
</svg>
