<svg width="30" height="31" viewBox="0 0 30 31" fill="none" xmlns="http://www.w3.org/2000/svg">
<path d="M13.9998 27.819C17.0882 27.8219 20.0757 26.7195 22.4218 24.711L26.6798 28.969C26.9294 29.2017 27.26 29.3278 27.6012 29.3203C27.9424 29.3128 28.2671 29.1723 28.5062 28.9289C28.7454 28.6854 28.88 28.3582 28.8814 28.017C28.8828 27.6758 28.7509 27.3475 28.5138 27.102L24.2568 22.811C26.0515 20.5319 27.0212 17.712 27.0078 14.811C27.0078 12.2399 26.2454 9.72647 24.8169 7.58863C23.3885 5.45079 21.3581 3.78455 18.9827 2.80061C16.6073 1.81667 13.9934 1.55922 11.4716 2.06083C8.94989 2.56244 6.63351 3.80057 4.81543 5.61865C2.99735 7.43674 1.75922 9.75311 1.25761 12.2749C0.756002 14.7966 1.01345 17.4105 1.99738 19.7859C2.98132 22.1614 4.64757 24.1917 6.78541 25.6201C8.92324 27.0486 11.4367 27.811 14.0078 27.811L13.9998 27.819ZM13.9998 4.43104C16.0539 4.43025 18.0621 5.03869 19.7704 6.17939C21.4786 7.3201 22.8102 8.94182 23.5966 10.8394C24.3831 12.737 24.589 14.8252 24.1885 16.8399C23.7879 18.8545 22.7989 20.7052 21.3464 22.1576C19.8939 23.6101 18.0433 24.5992 16.0287 24.9997C14.014 25.4003 11.9258 25.1943 10.0282 24.4078C8.13059 23.6214 6.50888 22.2898 5.36817 20.5816C4.22747 18.8733 3.61903 16.8651 3.61982 14.811C3.62167 12.0587 4.71587 9.41955 6.6621 7.47332C8.60832 5.52709 11.2474 4.4329 13.9998 4.43104Z" fill="#2D3F7B" stroke="#2D3F7B" stroke-width="2"/>
</svg>
