<svg width="29" height="27" viewBox="0 0 29 27" fill="none" xmlns="http://www.w3.org/2000/svg">
<path d="M26.0684 5.59293H16.3124L20.5414 1.36393L19.6414 0.450928L14.4994 5.59293L9.36035 0.450928L8.44735 1.36393L12.6894 5.59293H2.93135C2.59377 5.5928 2.25947 5.65917 1.94755 5.78827C1.63563 5.91737 1.35219 6.10665 1.11344 6.34531C0.874688 6.58397 0.685294 6.86733 0.556077 7.1792C0.42686 7.49107 0.360352 7.82535 0.360352 8.16293V23.5879C0.362199 24.2692 0.633665 24.9221 1.11542 25.4039C1.59718 25.8856 2.25005 26.1571 2.93135 26.1589H26.0684C26.7497 26.1571 27.4025 25.8856 27.8843 25.4039C28.366 24.9221 28.6375 24.2692 28.6394 23.5879V8.16293C28.6394 7.82535 28.5728 7.49107 28.4436 7.1792C28.3144 6.86733 28.125 6.58397 27.8863 6.34531C27.6475 6.10665 27.3641 5.91737 27.0522 5.78827C26.7402 5.65917 26.4059 5.5928 26.0684 5.59293ZM26.0684 23.5929H2.93135V8.16293H26.0684V23.5929ZM10.6434 10.7339V21.0169L19.6434 15.8749L10.6434 10.7339Z" fill="#A7A7A7"/>
</svg>
